<svg xmlns="http://www.w3.org/2000/svg" viewBox="0 0 360.92 77.85"><defs><style>.cls-1{fill:#005ca9;}.cls-2{fill:#5bc5f2;}.cls-3{fill:#1d1d1b;}</style></defs><title>exertus-logoAsset 1</title><g id="Layer_2" data-name="Layer 2"><g id="Layer_1-2" data-name="Layer 1"><path class="cls-1" d="M77.52,36.92c-.39,3.76-4.44,7.85-7.09,9.78-8.17,6-16.94,9.4-22,11.45C30.16,65.5,11.72,69.63,12,70.67c-.18,1,26.38-2.54,46.6-9.49C66.75,58.36,80.88,53,88.89,44.9c2.36-2.38,4.77-5.95,4.77-10,0-4.58-2.42-7.95-6.29-11.51C86.12,22.24,78.74,15.19,54,6.76c-3-1-22.65-8.45-23.71-6.4-1.52,2.2,19.48,13.73,22.56,15.42,1.14.62,10.62,5.8,12,6.56C68.48,24.38,78.34,29.06,77.52,36.92Z"/><path class="cls-2" d="M54.29,40.93c.39-3.76,4.44-7.85,7.08-9.78,8.17-6,16.95-9.4,22-11.45,18.23-7.35,36.67-11.48,36.43-12.52.18-1-26.39,2.54-46.6,9.49C65.06,19.49,50.93,24.85,42.92,33c-2.36,2.38-4.78,5.95-4.78,10,0,4.58,2.42,7.95,6.3,11.51,1.25,1.14,8.62,8.2,33.34,16.63,3,1,22.65,8.45,23.72,6.4C103,75.29,82,63.76,78.94,62.07c-1.14-.63-10.62-5.81-12-6.56C63.33,53.47,53.47,48.78,54.29,40.93Z"/><path class="cls-2" d="M7.83,40.36C8,38.54,10,36.55,11.27,35.62A47.77,47.77,0,0,1,22,30.06C30.81,26.5,39.75,24.49,39.64,24c.08-.47-12.8,1.23-22.61,4.6-4,1.37-10.83,4-14.71,7.9A7.22,7.22,0,0,0,0,41.34c0,2.22,1.18,3.86,3.06,5.59.6.55,4.18,4,16.17,8.06,1.47.5,11,4.1,11.51,3.11.73-1.07-9.45-6.66-10.95-7.48-.55-.31-5.15-2.82-5.8-3.19C12.22,46.44,7.44,44.17,7.83,40.36Z"/><path id="path2929" class="cls-3" d="M115,53.43V27.57h26.48V32H121v5.78H133v4.4H121v6.41h20.7v4.87Zm33.87,0,12.26-13.29L148.66,27.57h8l8.27,8.78,7.85-8.78h6.93L168.4,39.46l13.94,14h-8.17l-9.46-10-8.74,10Zm39.91,0V27.57h26.47V32H194.8v5.78h11.94v4.4H194.8v6.41h20.7v4.87ZM244,32H230.5v7.2H244a3.67,3.67,0,0,0,2.14-.45,1.94,1.94,0,0,0,.57-1.6V34.07a1.89,1.89,0,0,0-.57-1.57A3.58,3.58,0,0,0,244,32ZM224.58,53.43V27.57h22.11a6.77,6.77,0,0,1,4.47,1.19,4.79,4.79,0,0,1,1.38,3.82v6.08a4.76,4.76,0,0,1-1.38,3.8,6.71,6.71,0,0,1-4.47,1.21h-3.37l11.93,9.76h-8.63L236.2,43.67h-5.7v9.76Zm51.33-21.24V53.43h-6V32.19H258V27.57h29.8v4.62Zm25.29-4.62v21h17.14v-21h6V47.32q0,3.54-1.31,4.82c-.89.86-2.58,1.29-5.1,1.29H301.59c-2.49,0-4.19-.43-5.08-1.29s-1.33-2.46-1.33-4.82V27.57Zm54.07,4.52H338.34v5.56h16.12q3.8,0,5.12,1.29c.9.87,1.34,2.47,1.34,4.83v3.55c0,2.34-.44,3.94-1.34,4.81s-2.59,1.3-5.12,1.3h-16c-2.53,0-4.24-.44-5.13-1.3S332,49.66,332,47.32v-.71l5.31-1.1v3.05h18.27V42.67H339.49c-2.51,0-4.2-.44-5.09-1.3s-1.32-2.47-1.32-4.82V33.69q0-3.52,1.32-4.83c.89-.86,2.58-1.29,5.09-1.29h14.67c2.43,0,4.11.42,5,1.24s1.39,2.32,1.39,4.44v.53L355.27,35Z"/></g></g></svg>